PathFileType	4	(X/Y/Z)	/Users/itak/Documents/Research/Walk-IL/dataset/trc/00281_00010.trc
DataRate	CameraRate	NumFrames	NumMarkers	Units	OrigDataRate	OrigDataStartFrame	OrigNumFrames
100.000000	100.000000	4	54	mm	100.000000	537	614
Frame#	Time	RPSI			LPSI			L3			STRN			T10			C7			CLAV			RBAK			LBAK			LSHO			LUPA			LAEL			LAOL			LWTS			LWPS			LFRA			LIFD			LHPS			LHTS			RSHO			RUPA			RAEL			RAOL			RWTS			RWPS			RFRA			RIFD			RHTS			RHPS			RBHD			LFHD			RFHD			LBHD			LHIP			RASI			LASI			LKNE			LTHI			LANK			LTIP			LTOE			LMT1			LMT5			LHEE			RKNE			RTHI			RANK			RTIP			RTOE			RMT1			RMT5			RHEE			RHIP			*53			
		X1	Y1	Z1	X2	Y2	Z2	X3	Y3	Z3	X4	Y4	Z4	X5	Y5	Z5	X6	Y6	Z6	X7	Y7	Z7	X8	Y8	Z8	X9	Y9	Z9	X10	Y10	Z10	X11	Y11	Z11	X12	Y12	Z12	X13	Y13	Z13	X14	Y14	Z14	X15	Y15	Z15	X16	Y16	Z16	X17	Y17	Z17	X18	Y18	Z18	X19	Y19	Z19	X20	Y20	Z20	X21	Y21	Z21	X22	Y22	Z22	X23	Y23	Z23	X24	Y24	Z24	X25	Y25	Z25	X26	Y26	Z26	X27	Y27	Z27	X28	Y28	Z28	X29	Y29	Z29	X30	Y30	Z30	X31	Y31	Z31	X32	Y32	Z32	X33	Y33	Z33	X34	Y34	Z34	X35	Y35	Z35	X36	Y36	Z36	X37	Y37	Z37	X38	Y38	Z38	X39	Y39	Z39	X40	Y40	Z40	X41	Y41	Z41	X42	Y42	Z42	X43	Y43	Z43	X44	Y44	Z44	X45	Y45	Z45	X46	Y46	Z46	X47	Y47	Z47	X48	Y48	Z48	X49	Y49	Z49	X50	Y50	Z50	X51	Y51	Z51	X52	Y52	Z52	X53	Y53	Z53	X54	Y54	Z54	

538	5.37	-641.35498046875	999.0240478515625	1042.27587890625	-543.60498046875	980.4524536132812	897.8364868164062	-585.3031616210938	1067.391845703125	978.7637329101562	-379.6336364746094	1259.701782226562	1106.865966796875	-607.2080078125	1182.840576171875	978.4974975585938	-577.7938232421875	1429.652465820312	989.6337890625	-439.5043334960938	1355.516357421875	1072.611694335938	-651.3455200195312	1287.178588867188	1033.3427734375	-538.9130859375	1397.91552734375	891.0338745117188	-433.726806640625	1410.608032226562	891.234375	-422.5113220214844	1300.257446289062	803.8229370117188	-418.933837890625	1099.205932617188	773.7122192382812	-499.8033752441406	1083.710083007812	802.4473266601562	-373.2182006835938	867.287841796875	823.4059448242188	-381.7778015136719	863.4588623046875	751.797607421875	-406.2708435058594	994.810546875	759.1080322265625	-375.5621337890625	681.0987548828125	803.2570190429688	-382.0690002441406	775.7093505859375	746.2001342773438	-347.02685546875	770.2646484375	802.491943359375	-590.1273803710938	1407.6728515625	1161.593505859375	-619.7081909179688	1350.66943359375	1221.041870117188	-587.6046752929688	1118.958618164062	1355.731567382812	-559.9431762695312	1080.418090820312	1275.424682617188	-419.5701904296875	965.7131958007812	1465.5068359375	-498.1176147460938	951.2931518554688	1496.3583984375	-558.2033081054688	1073.461303710938	1404.052001953125	-367.9454650878906	812.8301391601562	1556.3564453125	-381.5256958007812	888.028564453125	1551.060668945312	-449.869140625	871.793701171875	1560.61767578125	-619.5715942382812	1570.440185546875	1059.657104492188	-422.0292053222656	1649.536499023438	1041.049926757812	-469.9092102050781	1643.1982421875	1120.066772460938	-541.5651245117188	1571.097778320312	936.9613647460938	-427.7192077636719	940.864013671875	861.1239624023438	-470.7322692871094	972.2357788085938	1195.45751953125	-343.2975158691406	968.7384033203125	977.5193481445312	-263.3704223632812	505.8615112304688	982.7996826171875	-301.6057739257812	640.269287109375	942.5604858398438	-470.5265197753906	117.0066528320312	867.1271362304688	-357.7881469726562	304.2391357421875	917.2406616210938	-356.4320678710938	62.20197677612305	1029.070068359375	-434.0364685058594	62.89917373657227	1019.49267578125	-373.8948364257812	74.07144927978516	927.2780151367188	-543.2954711914062	125.5975036621094	883.4285888671875	-537.5632934570312	492.4651794433594	1190.403564453125	-544.8170776367188	756.8978271484375	1224.159912109375	-551.977783203125	44.91416168212891	1133.9306640625	-517.65185546875	370.0480651855469	1185.393920898438	-355.5156860351562	45.72842788696289	1188.286010742188	-385.0555114746094	46.33494567871094	1125.430541992188	-473.1203002929688	36.04985427856445	1203.72119140625	-570.2628784179688	44.54356384277344	1064.847534179688	-609.2371826171875	960.0799560546875	1187.060913085938	nan	nan	nan	
539	5.38	-640.3359375	998.8069458007812	1045.426635742188	-543.155517578125	980.4674072265625	900.5474853515625	-584.6150512695312	1067.3076171875	981.67138671875	-378.7267761230469	1259.696411132812	1109.325927734375	-606.598876953125	1182.824340820312	981.3780517578125	-577.213134765625	1429.629272460938	992.39892578125	-438.7079162597656	1355.505493164062	1075.148071289062	-650.6905517578125	1287.123046875	1036.329956054688	-538.4508666992188	1397.858276367188	893.6974487304688	-433.1982727050781	1410.468994140625	893.7461547851562	-421.4045715332031	1299.749389648438	806.819580078125	-417.6092224121094	1098.341552734375	777.6641845703125	-498.77294921875	1083.27001953125	805.7780151367188	-374.6085205078125	865.918701171875	827.9517211914062	-382.4503173828125	862.261474609375	756.2769775390625	-405.6610107421875	993.8953247070312	763.4424438476562	-379.2807006835938	679.8026123046875	807.4895629882812	-383.5212707519531	774.5890502929688	750.5781860351562	-349.5322265625	768.5394897460938	807.248046875	-589.0999755859375	1407.456176757812	1164.390380859375	-618.0635986328125	1350.345825195312	1224.085571289062	-582.8472290039062	1118.529296875	1358.032104492188	-555.115966796875	1080.47314453125	1277.373901367188	-411.0560607910156	968.587646484375	1466.578125	-489.0713195800781	952.2633056640625	1497.798583984375	-552.3291015625	1073.35986328125	1406.057250976562	-355.1844787597656	816.998291015625	1557.190551757812	-370.7066040039062	891.8184204101562	1551.902465820312	-438.5566711425781	873.9010620117188	1561.722290039062	-619.0252075195312	1570.250366210938	1062.337524414062	-421.6738586425781	1649.582397460938	1043.116821289062	-469.3804931640625	1643.26953125	1122.266845703125	-541.3555908203125	1570.8955078125	939.4417724609375	-427.3804321289062	940.9962768554688	863.4277954101562	-469.0109558105469	972.0963745117188	1197.8486328125	-342.4791259765625	968.8771362304688	979.4552001953125	-263.8016357421875	505.4829711914062	984.2263793945312	-301.7145690917969	640.0336303710938	944.05029296875	-464.2633361816406	110.9168472290039	874.4074096679688	-355.1866149902344	301.3026123046875	921.3132934570312	-346.9750061035156	62.27064514160156	1036.155029296875	-424.6890563964844	60.49951934814453	1027.250610351562	-365.6951904296875	71.98119354248047	934.3053588867188	-537.0817260742188	117.7918243408203	891.1593627929688	-536.1275634765625	492.2861328125	1192.071166992188	-543.0066528320312	756.6009521484375	1226.573974609375	-551.8794555664062	44.96491241455078	1133.948364257812	-516.5707397460938	369.835693359375	1186.4951171875	-355.3872985839844	45.54937744140625	1188.264038085938	-384.8737182617188	46.13285827636719	1125.320434570312	-473.0747375488281	36.06376266479492	1203.697265625	-570.2489013671875	44.6718864440918	1064.861328125	-607.561279296875	959.8184814453125	1190.029052734375	nan	nan	nan	
540	5.39	-639.315185546875	998.6337890625	1048.521728515625	-542.7306518554688	980.4959716796875	903.1865844726562	-583.9423828125	1067.225341796875	984.511474609375	-377.8001403808594	1259.694946289062	1111.662719726562	-605.9859008789062	1182.792724609375	984.1698608398438	-576.6170654296875	1429.6025390625	995.05908203125	-437.8972778320312	1355.4951171875	1077.580688476562	-650.0551147460938	1287.092041015625	1039.178588867188	-537.9882202148438	1397.791381835938	896.253173828125	-432.6708679199219	1410.33203125	896.1494140625	-420.2085266113281	1299.192504882812	809.7850341796875	-415.9783020019531	1097.371948242188	781.697509765625	-497.4880676269531	1082.742431640625	809.0481567382812	-375.9358520507812	864.4654541015625	832.8240356445312	-382.8246154785156	860.9873046875	761.068359375	-404.726806640625	992.9144287109375	767.9945068359375	-383.2161254882812	678.4534912109375	811.9968872070312	-384.9035949707031	773.3558349609375	755.2470092773438	-352.1101989746094	766.6937866210938	812.4036865234375	-588.0445556640625	1407.217407226562	1167.059326171875	-616.4306640625	1349.99462890625	1226.963256835938	-578.3610229492188	1117.95849609375	1359.963989257812	-550.7320556640625	1080.41943359375	1278.880249023438	-402.822998046875	971.2252197265625	1466.854614257812	-480.1908569335938	953.047119140625	1498.614501953125	-546.71826171875	1073.068359375	1407.637329101562	-342.5549011230469	821.0446166992188	1557.0419921875	-360.0222778320312	895.4348754882812	1551.841918945312	-427.322021484375	875.8305053710938	1562.064819335938	-618.4735107421875	1570.034912109375	1064.924438476562	-421.3388671875	1649.641479492188	1045.07421875	-468.8476867675781	1643.34765625	1124.374633789062	-541.1403198242188	1570.691040039062	941.8334350585938	-427.0358276367188	941.10888671875	865.6729736328125	-467.2842407226562	971.97216796875	1200.170043945312	-341.6998291015625	968.9746704101562	981.29150390625	-264.3893432617188	505.0412292480469	985.4691162109375	-301.9520874023438	639.7430419921875	945.3787841796875	-458.1528930664062	105.158821105957	881.2470703125	-352.6504516601562	298.4505310058594	925.1362915039062	-338.1145324707031	62.52340698242188	1042.77978515625	-415.8848571777344	58.3741455078125	1034.4951171875	-357.9025268554688	70.10288238525391	940.9163208007812	-530.9727783203125	110.3872756958008	898.3994750976562	-534.7838134765625	492.0995483398438	1193.642578125	-541.24267578125	756.3043823242188	1228.90966796875	-551.7957153320312	45.01474761962891	1133.9921875	-515.60546875	369.6566772460938	1187.532470703125	-355.28515625	45.41215133666992	1188.25341796875	-384.7123107910156	45.91555404663086	1125.214965820312	-473.0298767089844	36.08237457275391	1203.681274414062	-570.2451782226562	44.80776977539062	1064.906005859375	-605.8543701171875	959.5988159179688	1192.920288085938	nan	nan	nan	
541	5.4	-638.2911987304688	998.5023803710938	1051.547973632812	-542.3206787109375	980.5452880859375	905.7476196289062	-583.276611328125	1067.145874023438	987.28173828125	-376.8551025390625	1259.69677734375	1113.877807617188	-605.3684692382812	1182.7490234375	986.8738403320312	-576.0004272460938	1429.565673828125	997.6162719726562	-437.0731506347656	1355.484619140625	1079.911254882812	-649.4375	1287.09423828125	1041.886474609375	-537.5238037109375	1397.712768554688	898.7051391601562	-432.1495666503906	1410.19921875	898.441162109375	-418.9582824707031	1298.599731445312	812.7058715820312	-414.105224609375	1096.320556640625	785.8047485351562	-495.9933166503906	1082.1435546875	812.2730712890625	-377.1688842773438	862.9744262695312	838.0180053710938	-382.8893432617188	859.6611328125	766.1783447265625	-403.5080261230469	991.8893432617188	772.7562866210938	-387.3139038085938	677.0939331054688	816.7869873046875	-386.1926879882812	772.0366821289062	760.2145385742188	-354.7195434570312	764.7740478515625	817.9545288085938	-586.955810546875	1406.956909179688	1169.596435546875	-614.8006591796875	1349.629516601562	1229.678344726562	-574.1527709960938	1117.262817382812	1361.557739257812	-546.8198852539062	1080.253295898438	1279.986572265625	-394.8992614746094	973.5881958007812	1466.322631835938	-471.4988708496094	953.6732177734375	1498.850341796875	-541.3795776367188	1072.608032226562	1408.826904296875	-330.1217651367188	824.9389038085938	1555.897705078125	-349.5006408691406	898.856689453125	1550.86083984375	-416.2005615234375	877.6035766601562	1561.681884765625	-617.9159545898438	1569.79638671875	1067.42236328125	-421.0228576660156	1649.718872070312	1046.929443359375	-468.3036193847656	1643.432373046875	1126.392822265625	-540.91845703125	1570.485107421875	944.1385498046875	-426.6777648925781	941.2030639648438	867.858154296875	-465.5782775878906	971.85302734375	1202.433227539062	-340.9550476074219	969.0335083007812	983.0427856445312	-265.1054382324219	504.5467834472656	986.5498657226562	-302.3016662597656	639.404052734375	946.5633544921875	-452.2734069824219	99.78851318359375	887.6375122070312	-350.2332153320312	295.7304992675781	928.6971435546875	-329.8701477050781	62.92267608642578	1048.902465820312	-407.6575012207031	56.5228385925293	1041.210205078125	-350.5787658691406	68.45610046386719	947.0730590820312	-525.0609741210938	103.4367980957031	905.1543579101562	-533.5723266601562	491.895751953125	1195.08056640625	-539.5452270507812	756.0038452148438	1231.138061523438	-551.7151489257812	45.06584548950195	1134.04150390625	-514.7840576171875	369.5102233886719	1188.467895507812	-355.202392578125	45.30817031860352	1188.245483398438	-384.5575256347656	45.6882438659668	1125.115966796875	-472.9821166992188	36.11313247680664	1203.665283203125	-570.2306518554688	44.94112014770508	1064.95947265625	-604.1359252929688	959.4121704101562	1195.728149414062	nan	nan	nan	
